<svg xmlns="http://www.w3.org/2000/svg" viewBox="0 0 560 320" role="img" aria-labelledby="title desc">
  <title id="title">Synthetic WOD2Sim Contract Demo</title>
  <desc id="desc">Public synthetic route and audited driver frames without gated scene media.</desc>
  <rect width="560" height="320" rx="28" fill="#f5f1e8"/>
  <rect x="28" y="28" width="504" height="264" rx="22" fill="#12343b"/>
  <text x="54" y="70" fill="#f4f1de" font-family="serif" font-size="24" font-weight="700">Synthetic contract demo</text>
  <text x="54" y="96" fill="#9fc7c1" font-family="monospace" font-size="13">not AlpaSim execution | not policy metrics | route_source=alpasim_waypoints</text>
  <path d="M54 236 C150 208 232 226 320 183 S438 145 498 128" fill="none" stroke="#6b7c85" stroke-width="38" stroke-linecap="round"/>
  <polyline points="80.0,230.0 160.0,225.2 240.0,213.2 320.0,196.4 400.0,177.2 480.0,162.8" fill="none" stroke="#f2cc8f" stroke-width="5" stroke-linecap="round" stroke-linejoin="round"/>
  <circle cx="80.0" cy="230.0" r="7" fill="#0f766e" opacity="0.35"/>
<circle cx="130.0" cy="227.6" r="7" fill="#0f766e" opacity="0.42"/>
<circle cx="180.0" cy="221.6" r="7" fill="#0f766e" opacity="0.49"/>
<circle cx="230.0" cy="214.4" r="7" fill="#0f766e" opacity="0.56"/>
<circle cx="280.0" cy="204.8" r="7" fill="#0f766e" opacity="0.63"/>
<circle cx="330.0" cy="192.8" r="7" fill="#0f766e" opacity="0.70"/>
<circle cx="380.0" cy="180.8" r="7" fill="#0f766e" opacity="0.77"/>
<circle cx="430.0" cy="171.2" r="7" fill="#0f766e" opacity="0.84"/>
  <rect x="54" y="112" width="170" height="72" rx="12" fill="#0a252b" stroke="#2a9d8f"/>
  <text x="70" y="140" fill="#f4f1de" font-family="monospace" font-size="13">frames: 8</text>
  <text x="70" y="160" fill="#f4f1de" font-family="monospace" font-size="13">sensor: ok</text>
  <text x="70" y="180" fill="#f4f1de" font-family="monospace" font-size="13">audit: format only</text>
  <rect x="330" y="214" width="168" height="42" rx="10" fill="#f2cc8f"/>
  <text x="348" y="240" fill="#12343b" font-family="monospace" font-size="13" font-weight="700">valid_claim_evidence=false</text>
</svg>
